<svg width="64" height="64" viewBox="0 0 64 64" fill="none" xmlns="http://www.w3.org/2000/svg">
<path fill-rule="evenodd" clip-rule="evenodd" d="M18.5746 13.1918C18.5746 12.4198 19.038 11.7389 19.6517 11.2704C21.1028 10.1627 22.0391 8.41474 22.0391 6.44814C22.0391 3.09956 19.3245 0.384991 15.976 0.384991C12.6274 0.384991 9.91281 3.09956 9.91281 6.44814C9.91281 8.41481 10.8492 10.1628 12.3004 11.2706C12.9141 11.7391 13.3776 12.4199 13.3776 13.192V23.6668C13.3776 24.5144 12.8289 25.2486 12.0942 25.6713C9.75527 27.0169 8.18042 29.5411 8.18042 32.4331C8.18042 35.3251 9.75527 37.8494 12.0942 39.1949C12.8289 39.6176 13.3776 40.3518 13.3776 41.1995V50.808C13.3776 51.5801 12.9141 52.2609 12.3004 52.7294C10.8492 53.8372 9.91281 55.5852 9.91281 57.5519C9.91281 60.9004 12.6274 63.615 15.976 63.615C19.3245 63.615 22.0391 60.9004 22.0391 57.5519C22.0391 55.5853 21.1028 53.8373 19.6517 52.7296C19.038 52.2611 18.5746 51.5802 18.5746 50.8082V40.7581C18.5746 40.1749 18.9519 39.6641 19.473 39.4021C19.9945 39.1399 20.6231 39.1471 21.0907 39.4964L42.9061 55.7889C43.4492 56.1945 43.6931 56.874 43.6931 57.5519C43.6931 60.9004 46.4077 63.615 49.7563 63.615C53.1049 63.615 55.8195 60.9004 55.8195 57.5519C55.8195 54.2033 53.1049 51.4887 49.7563 51.4887C49.1537 51.4887 48.5716 51.5766 48.0222 51.7403C47.27 51.9644 46.4318 51.9356 45.803 51.466L24.554 35.5965C23.875 35.0894 23.615 34.211 23.7157 33.3696C23.7525 33.0625 23.7714 32.75 23.7714 32.4331C23.7714 32.0783 23.7477 31.729 23.7018 31.3868C23.5891 30.5468 23.8366 29.6646 24.5083 29.1479L45.9937 12.6207C46.6065 12.1493 47.4299 12.1025 48.1765 12.3034C48.6802 12.439 49.2098 12.5113 49.7563 12.5113C53.1049 12.5113 55.8195 9.79673 55.8195 6.44814C55.8195 3.09956 53.1049 0.384991 49.7563 0.384991C46.4077 0.384991 43.6931 3.09956 43.6931 6.44814C43.6931 6.45718 43.6932 6.46622 43.6932 6.47525C43.6966 7.2471 43.439 8.02917 42.8272 8.49978L20.9459 25.3316C20.5096 25.6672 19.9167 25.683 19.4231 25.4393C18.9299 25.1958 18.5746 24.7135 18.5746 24.1635V13.1918Z" fill="url(#paint0_radial_4_1314)"/>
<defs>
<radialGradient id="paint0_radial_4_1314" cx="0" cy="0" r="1" gradientUnits="userSpaceOnUse" gradientTransform="translate(12.9443 28.9684) rotate(37.8328) scale(51.5441 50.608)">
<stop stop-color="#B1EBFE"/>
<stop offset="0.0933733" stop-color="#24CAFF"/>
<stop offset="1" stop-color="#8D47FF"/>
</radialGradient>
</defs>
<style>@media (prefers-color-scheme: light) { :root { filter: none; } }
@media (prefers-color-scheme: dark) { :root { filter: contrast(1) brightness(1.3); } }
</style>
</svg>
