<svg width="455" height="76" viewBox="0 0 455 76" fill="none" xmlns="http://www.w3.org/2000/svg">
<g clip-path="url(#clip0_4_1248)">
  <g id="text">
  <path d="M4.896 75.0003C3.488 75.0003 2.304 74.5523 1.344 73.6563C0.448 72.6963 0 71.5123 0 70.1043V4.92028C0 3.44828 0.448 2.26428 1.344 1.36828C2.304 0.472277 3.488 0.0242767 4.896 0.0242767H22.272C27.008 0.0242767 31.232 1.04828 34.944 3.09628C38.656 5.08027 41.536 7.83227 43.584 11.3523C45.696 14.8723 46.752 18.9683 46.752 23.6403C46.752 27.9923 45.696 31.8643 43.584 35.2563C41.536 38.6483 38.656 41.3043 34.944 43.2243C31.232 45.1443 27.008 46.1043 22.272 46.1043H9.792V70.1043C9.792 71.5123 9.344 72.6963 8.448 73.6563C7.552 74.5523 6.368 75.0003 4.896 75.0003ZM44.736 75.0003C43.84 75.0003 43.04 74.8083 42.336 74.4243C41.632 74.0403 41.024 73.4323 40.512 72.6003L23.136 44.6643L32.64 41.9763L48.576 67.5123C49.664 69.3043 49.792 71.0003 48.96 72.6003C48.192 74.2003 46.784 75.0003 44.736 75.0003ZM9.792 36.9843H22.272C25.216 36.9843 27.808 36.4403 30.048 35.3523C32.352 34.2003 34.144 32.6003 35.424 30.5523C36.704 28.5043 37.344 26.2003 37.344 23.6403C37.344 20.7603 36.704 18.2323 35.424 16.0563C34.144 13.8803 32.352 12.1843 30.048 10.9683C27.808 9.68827 25.216 9.04827 22.272 9.04827H9.792V36.9843Z" />
  <path d="M411.224 75.0003C409.816 75.0003 408.632 74.5523 407.672 73.6563C406.776 72.6963 406.328 71.5123 406.328 70.1043V4.92028C406.328 3.51228 406.776 2.36028 407.672 1.46428C408.632 0.504276 409.816 0.0242767 411.224 0.0242767H430.424C435.224 0.0242767 439.48 1.08028 443.192 3.19228C446.904 5.30428 449.784 8.21628 451.832 11.9283C453.944 15.6403 455 19.9603 455 24.8883C455 29.5603 453.944 33.7203 451.832 37.3683C449.784 41.0163 446.904 43.8643 443.192 45.9123C439.48 47.9603 435.224 48.9843 430.424 48.9843H416.12V70.1043C416.12 71.5123 415.64 72.6963 414.68 73.6563C413.784 74.5523 412.632 75.0003 411.224 75.0003ZM416.12 39.8643H430.424C433.368 39.8643 435.96 39.2243 438.2 37.9443C440.504 36.6643 442.296 34.9043 443.576 32.6643C444.92 30.3603 445.592 27.7683 445.592 24.8883C445.592 21.7523 444.952 19.0323 443.672 16.7283C442.392 14.3603 440.6 12.5043 438.296 11.1603C435.992 9.75228 433.368 9.04827 430.424 9.04827H416.12V39.8643Z" />
  <path d="M137.896 75.0003C136.552 75.0003 135.4 74.5523 134.44 73.6563C133.48 72.6963 133 71.5123 133 70.1043V4.92028C133 3.44828 133.448 2.26428 134.344 1.36828C135.304 0.472277 136.488 0.0242767 137.896 0.0242767H160.84C165.192 0.0242767 169 0.888277 172.264 2.61628C175.528 4.28028 178.088 6.61627 179.944 9.62427C181.864 12.5683 182.824 15.9923 182.824 19.8963C182.824 23.0963 181.96 25.9763 180.232 28.5363C178.568 31.0323 176.264 33.0163 173.32 34.4883C177.544 35.5123 180.936 37.5283 183.496 40.5363C186.056 43.5443 187.336 47.4803 187.336 52.3443C187.336 56.7603 186.28 60.6643 184.168 64.0563C182.12 67.4483 179.24 70.1363 175.528 72.1203C171.88 74.0403 167.656 75.0003 162.856 75.0003H137.896ZM142.792 65.9763H162.856C165.8 65.9763 168.392 65.4643 170.632 64.4403C172.872 63.3523 174.632 61.8163 175.912 59.8323C177.256 57.8483 177.928 55.3523 177.928 52.3443C177.928 49.5923 177.256 47.3203 175.912 45.5283C174.632 43.6723 172.872 42.2963 170.632 41.4003C168.392 40.4403 165.8 39.9603 162.856 39.9603H142.792V65.9763ZM142.792 30.8403H160.84C164.552 30.8403 167.56 29.9443 169.864 28.1523C172.232 26.2963 173.416 23.5443 173.416 19.8963C173.416 16.2483 172.232 13.5283 169.864 11.7363C167.56 9.94427 164.552 9.04827 160.84 9.04827H142.792V30.8403Z" />
  </g>
  <g id="os">
  <path d="M111 37.5639C111 47.4485 109.188 55.7243 105.548 61.3712C102.11 66.7031 96.8325 70.0639 88.5 70.0639C80.1675 70.0639 74.8898 66.7031 71.4524 61.3712C67.8118 55.7243 66 47.4485 66 37.5639C66 27.785 68.0232 19.4942 71.7921 13.8107C75.3993 8.37092 80.7359 5.06395 88.5 5.06395C96.2641 5.06395 101.601 8.37092 105.208 13.8107C108.977 19.4942 111 27.785 111 37.5639Z" fill='none' stroke-width="10"/>
  <path d="M249.5 37.5639C249.5 47.4485 247.688 55.7243 244.048 61.3712C240.61 66.7031 235.332 70.0639 227 70.0639C218.668 70.0639 213.39 66.7031 209.952 61.3712C206.312 55.7243 204.5 47.4485 204.5 37.5639C204.5 27.785 206.523 19.4942 210.292 13.8107C213.899 8.37092 219.236 5.06395 227 5.06395C234.764 5.06395 240.101 8.37092 243.708 13.8107C247.477 19.4942 249.5 27.785 249.5 37.5639Z" fill='none' stroke-width="10"/>
  <path d="M385.5 37.5639C385.5 47.4485 383.688 55.7243 380.048 61.3712C376.61 66.7031 371.332 70.0639 363 70.0639C354.668 70.0639 349.39 66.7031 345.952 61.3712C342.312 55.7243 340.5 47.4485 340.5 37.5639C340.5 27.785 342.523 19.4942 346.292 13.8107C349.899 8.37092 355.236 5.06395 363 5.06395C370.764 5.06395 376.101 8.37092 379.708 13.8107C383.477 19.4942 385.5 27.785 385.5 37.5639Z" fill='none' stroke-width="10"/>
  </g>
<path fill-rule="evenodd" clip-rule="evenodd" d="M280.993 15.1381C280.993 14.366 281.453 13.682 282.082 13.2353C283.943 11.9149 285.158 9.74308 285.158 7.28766C285.158 3.26279 281.895 -1.52588e-05 277.87 -1.52588e-05C273.845 -1.52588e-05 270.582 3.26279 270.582 7.28766C270.582 9.74312 271.797 11.915 273.658 13.2353C274.287 13.6821 274.747 14.3661 274.747 15.1382V28.2695C274.747 29.1171 274.201 29.8545 273.454 30.2545C270.506 31.8329 268.5 34.9425 268.5 38.5206C268.5 42.0987 270.506 45.2083 273.454 46.7867C274.201 47.1867 274.747 47.924 274.747 48.7717V60.8618C274.747 61.6339 274.287 62.3179 273.658 62.7647C271.797 64.085 270.582 66.2569 270.582 68.7123C270.582 72.7372 273.845 76 277.87 76C281.895 76 285.158 72.7372 285.158 68.7123C285.158 66.2569 283.943 64.0851 282.082 62.7647C281.453 62.318 280.993 61.634 280.993 60.8619V48.5271C280.993 47.826 281.447 47.2119 282.073 46.897V46.897C282.7 46.5818 283.456 46.5905 284.018 47.0104L310.31 66.6467C310.919 67.1015 311.195 67.863 311.185 68.623C311.185 68.6527 311.185 68.6825 311.185 68.7123C311.185 72.7372 314.448 76 318.473 76C322.497 76 325.76 72.7372 325.76 68.7123C325.76 64.6875 322.497 61.4247 318.473 61.4247C317.657 61.4247 316.872 61.5587 316.14 61.8059C315.397 62.0569 314.558 62.0228 313.93 61.5532L287.952 42.152C287.273 41.6449 287.008 40.7671 287.135 39.9291C287.204 39.4697 287.24 38.9993 287.24 38.5206C287.24 37.9961 287.197 37.4816 287.114 36.9805C286.976 36.1444 287.227 35.2628 287.899 34.746L314.153 14.5509C314.766 14.0795 315.589 14.0275 316.328 14.2547C317.006 14.4631 317.726 14.5753 318.473 14.5753C322.497 14.5753 325.76 11.3125 325.76 7.28766C325.76 3.26279 322.497 -1.52588e-05 318.473 -1.52588e-05C314.448 -1.52588e-05 311.185 3.26279 311.185 7.28766C311.185 7.38402 311.187 7.47994 311.191 7.57539C311.22 8.34667 310.958 9.12747 310.346 9.59808L283.844 29.9848C283.319 30.3882 282.607 30.4073 282.013 30.1143V30.1143C281.42 29.8215 280.993 29.2419 280.993 28.5807V15.1381Z" fill="url(#paint0_radial_4_1248)"/>
<circle cx="277.87" cy="38.5206" r="9.36986" fill="url(#paint1_radial_4_1248)"/>
<circle cx="318.473" cy="68.7124" r="7.28767" fill="url(#paint2_radial_4_1248)"/>
<circle cx="277.87" cy="68.7124" r="7.28767" fill="url(#paint3_radial_4_1248)"/>
<circle cx="318.473" cy="7.28766" r="7.28767" fill="url(#paint4_radial_4_1248)"/>
<circle cx="277.87" cy="7.28766" r="7.28767" fill="url(#paint5_radial_4_1248)"/>
</g>
<defs>
<radialGradient id="paint0_radial_4_1248" cx="0" cy="0" r="1" gradientUnits="userSpaceOnUse" gradientTransform="translate(274.226 34.3562) rotate(37.8328) scale(61.954 60.8288)">
<stop stop-color="#B1EBFE"/>
<stop offset="0.0933733" stop-color="#24CAFF"/>
<stop offset="1" stop-color="#8D47FF"/>
</radialGradient>
<radialGradient id="paint1_radial_4_1248" cx="0" cy="0" r="1" gradientUnits="userSpaceOnUse" gradientTransform="translate(273.074 33.9134) rotate(45.4122) scale(15.5833)">
<stop stop-color="#A2D3E2"/>
<stop offset="0.182292" stop-color="#1CC2F5"/>
<stop offset="1" stop-color="#2894F8"/>
</radialGradient>
<radialGradient id="paint2_radial_4_1248" cx="0" cy="0" r="1" gradientUnits="userSpaceOnUse" gradientTransform="translate(314.512 65.148) rotate(44.4069) scale(12.655)">
<stop stop-color="#8E86DF"/>
<stop offset="0.208333" stop-color="#6152F3"/>
<stop offset="1" stop-color="#A05CF8"/>
</radialGradient>
<radialGradient id="paint3_radial_4_1248" cx="0" cy="0" r="1" gradientUnits="userSpaceOnUse" gradientTransform="translate(273.884 65.0012) rotate(46.9946) scale(12.5967)">
<stop stop-color="#93B5E3"/>
<stop offset="0.176926" stop-color="#428FF7"/>
<stop offset="1" stop-color="#3D79EF"/>
</radialGradient>
<radialGradient id="paint4_radial_4_1248" cx="0" cy="0" r="1" gradientUnits="userSpaceOnUse" gradientTransform="translate(314.593 3.84499) rotate(44.029) scale(12.431)">
<stop stop-color="#9797EB"/>
<stop offset="0.192708" stop-color="#585AFA"/>
<stop offset="1" stop-color="#8359FB"/>
</radialGradient>
<radialGradient id="paint5_radial_4_1248" cx="0" cy="0" r="1" gradientUnits="userSpaceOnUse" gradientTransform="translate(273.945 3.12668) rotate(44.6968) scale(12.78)">
<stop stop-color="#9ED3FF"/>
<stop offset="0.196764" stop-color="#44A9FF"/>
<stop offset="1" stop-color="#228FE7"/>
</radialGradient>
<clipPath id="clip0_4_1248">
<rect width="455" height="76" fill="white"/>
</clipPath>
</defs>
<style>
@media (prefers-color-scheme: light) {
  #text {
    fill: #1C1E21;
  }
  #os {
    stroke: #1C1E21;
  }
}
@media (prefers-color-scheme: dark) {
  #text {
    fill: #e3e3e3;
  }
  #os {
    stroke: #e3e3e3;
  }
}
</style>
</svg>
